<svg width="15" height="14" viewBox="0 0 15 14" fill="none" xmlns="http://www.w3.org/2000/svg">
<path d="M7.50004 10.3335C7.68893 10.3335 7.84737 10.2695 7.97537 10.1415C8.10293 10.0139 8.16671 9.85572 8.16671 9.66683V7.66683H10.1834C10.3723 7.66683 10.5278 7.60283 10.65 7.47483C10.7723 7.34727 10.8334 7.18905 10.8334 7.00016C10.8334 6.81127 10.7694 6.65283 10.6414 6.52483C10.5138 6.39727 10.3556 6.3335 10.1667 6.3335H8.16671V4.31683C8.16671 4.12794 8.10293 3.97238 7.97537 3.85016C7.84737 3.72794 7.68893 3.66683 7.50004 3.66683C7.31115 3.66683 7.15293 3.73061 7.02537 3.85816C6.89737 3.98616 6.83337 4.14461 6.83337 4.3335V6.3335H4.81671C4.62782 6.3335 4.47226 6.39727 4.35004 6.52483C4.22782 6.65283 4.16671 6.81127 4.16671 7.00016C4.16671 7.18905 4.23048 7.34727 4.35804 7.47483C4.48604 7.60283 4.64448 7.66683 4.83337 7.66683H6.83337V9.6835C6.83337 9.87238 6.89737 10.0279 7.02537 10.1502C7.15293 10.2724 7.31115 10.3335 7.50004 10.3335ZM7.50004 13.6668C6.57782 13.6668 5.71115 13.4917 4.90004 13.1415C4.08893 12.7917 3.38337 12.3168 2.78337 11.7168C2.18337 11.1168 1.70849 10.4113 1.35871 9.60016C1.00849 8.78905 0.833374 7.92238 0.833374 7.00016C0.833374 6.07794 1.00849 5.21127 1.35871 4.40016C1.70849 3.58905 2.18337 2.8835 2.78337 2.2835C3.38337 1.6835 4.08893 1.20838 4.90004 0.858163C5.71115 0.508385 6.57782 0.333496 7.50004 0.333496C8.42226 0.333496 9.28893 0.508385 10.1 0.858163C10.9112 1.20838 11.6167 1.6835 12.2167 2.2835C12.8167 2.8835 13.2916 3.58905 13.6414 4.40016C13.9916 5.21127 14.1667 6.07794 14.1667 7.00016C14.1667 7.92238 13.9916 8.78905 13.6414 9.60016C13.2916 10.4113 12.8167 11.1168 12.2167 11.7168C11.6167 12.3168 10.9112 12.7917 10.1 13.1415C9.28893 13.4917 8.42226 13.6668 7.50004 13.6668ZM7.50004 12.3335C8.97782 12.3335 10.2363 11.8142 11.2754 10.7755C12.314 9.73638 12.8334 8.47794 12.8334 7.00016C12.8334 5.52238 12.314 4.26394 11.2754 3.22483C10.2363 2.18616 8.97782 1.66683 7.50004 1.66683C6.02226 1.66683 4.76404 2.18616 3.72537 3.22483C2.68626 4.26394 2.16671 5.52238 2.16671 7.00016C2.16671 8.47794 2.68626 9.73638 3.72537 10.7755C4.76404 11.8142 6.02226 12.3335 7.50004 12.3335Z" fill="white"/>
</svg>
