<svg width="16" height="14" viewBox="0 0 16 14" fill="none" xmlns="http://www.w3.org/2000/svg">
<path d="M7.99996 13.0335C7.87774 13.0335 7.7584 13.0168 7.64196 12.9835C7.52507 12.9502 7.41663 12.9057 7.31663 12.8502C6.86107 12.5724 6.38329 12.3613 5.88329 12.2168C5.38329 12.0724 4.86663 12.0002 4.33329 12.0002C3.86663 12.0002 3.4084 12.0613 2.95863 12.1835C2.5084 12.3057 2.07774 12.478 1.66663 12.7002C1.43329 12.8224 1.2084 12.8168 0.991959 12.6835C0.77507 12.5502 0.666626 12.3557 0.666626 12.1002V4.06684C0.666626 3.94462 0.697293 3.82795 0.758626 3.71684C0.819515 3.60573 0.91107 3.5224 1.03329 3.46684C1.5444 3.20017 2.07774 3.00017 2.63329 2.86684C3.18885 2.73351 3.75551 2.66684 4.33329 2.66684C4.97774 2.66684 5.6084 2.75017 6.22529 2.91684C6.84174 3.08351 7.43329 3.33351 7.99996 3.66684V11.7335C8.56663 11.378 9.16107 11.1113 9.78329 10.9335C10.4055 10.7557 11.0333 10.6668 11.6666 10.6668C12.0666 10.6668 12.4584 10.7002 12.842 10.7668C13.2251 10.8335 13.6111 10.9335 14 11.0668V3.06684C14.1666 3.1224 14.3306 3.18062 14.492 3.24151C14.6528 3.30284 14.8111 3.37795 14.9666 3.46684C15.0888 3.5224 15.1806 3.60573 15.242 3.71684C15.3028 3.82795 15.3333 3.94462 15.3333 4.06684V12.1002C15.3333 12.3557 15.2251 12.5502 15.0086 12.6835C14.7917 12.8168 14.5666 12.8224 14.3333 12.7002C13.9222 12.478 13.4915 12.3057 13.0413 12.1835C12.5915 12.0613 12.1333 12.0002 11.6666 12.0002C11.1333 12.0002 10.6166 12.0724 10.1166 12.2168C9.61663 12.3613 9.13885 12.5724 8.68329 12.8502C8.58329 12.9057 8.47507 12.9502 8.35863 12.9835C8.24174 13.0168 8.12218 13.0335 7.99996 13.0335ZM9.88329 9.50017C9.77218 9.60017 9.65285 9.61951 9.52529 9.55817C9.39729 9.49728 9.33329 9.39462 9.33329 9.25017V3.80017C9.33329 3.77795 9.36663 3.70017 9.43329 3.56684L12.1 0.900174C12.2111 0.789062 12.3333 0.761285 12.4666 0.81684C12.6 0.872396 12.6666 0.977951 12.6666 1.13351V6.85017C12.6666 6.89462 12.6277 6.97795 12.55 7.10017L9.88329 9.50017Z" fill="#586A84"/>
</svg>
