<svg width="14" height="12" viewBox="0 0 14 12" fill="none" xmlns="http://www.w3.org/2000/svg">
<path d="M9.00004 8.6665C9.18893 8.6665 9.34737 8.6025 9.47537 8.4745C9.60293 8.34695 9.66671 8.18873 9.66671 7.99984V7.33317H10.3334C10.5223 7.33317 10.6805 7.26917 10.808 7.14117C10.936 7.01361 11 6.85539 11 6.6665C11 6.47761 10.936 6.31917 10.808 6.19117C10.6805 6.06361 10.5223 5.99984 10.3334 5.99984H9.66671V5.33317C9.66671 5.14428 9.60293 4.98584 9.47537 4.85784C9.34737 4.73028 9.18893 4.6665 9.00004 4.6665C8.81115 4.6665 8.65293 4.73028 8.52537 4.85784C8.39737 4.98584 8.33337 5.14428 8.33337 5.33317V5.99984H7.66671C7.47782 5.99984 7.3196 6.06361 7.19204 6.19117C7.06404 6.31917 7.00004 6.47761 7.00004 6.6665C7.00004 6.85539 7.06404 7.01361 7.19204 7.14117C7.3196 7.26917 7.47782 7.33317 7.66671 7.33317H8.33337V7.99984C8.33337 8.18873 8.39737 8.34695 8.52537 8.4745C8.65293 8.6025 8.81115 8.6665 9.00004 8.6665ZM1.66671 11.3332C1.30004 11.3332 0.986263 11.2027 0.725374 10.9418C0.464041 10.6805 0.333374 10.3665 0.333374 9.99984V1.99984C0.333374 1.63317 0.464041 1.31939 0.725374 1.0585C0.986263 0.79717 1.30004 0.666504 1.66671 0.666504H5.11671C5.29449 0.666504 5.46404 0.699837 5.62537 0.766504C5.78626 0.833171 5.92782 0.927615 6.05004 1.04984L7.00004 1.99984H12.3334C12.7 1.99984 13.014 2.1305 13.2754 2.39184C13.5363 2.65273 13.6667 2.9665 13.6667 3.33317V9.99984C13.6667 10.3665 13.5363 10.6805 13.2754 10.9418C13.014 11.2027 12.7 11.3332 12.3334 11.3332H1.66671Z" fill="#586A84"/>
</svg>
