<svg width="16" height="16" viewBox="0 0 16 16" fill="none" xmlns="http://www.w3.org/2000/svg">
<path d="M14.0833 5.43758L10.5417 1.93758L11.7083 0.770915C12.0278 0.45147 12.4203 0.291748 12.8858 0.291748C13.3508 0.291748 13.7431 0.45147 14.0625 0.770915L15.2292 1.93758C15.5486 2.25703 15.7153 2.64258 15.7292 3.09425C15.7431 3.54536 15.5903 3.93064 15.2708 4.25008L14.0833 5.43758ZM1.33333 15.5001C1.09722 15.5001 0.899445 15.4201 0.74 15.2601C0.58 15.1006 0.5 14.9029 0.5 14.6667V12.3126C0.5 12.2015 0.520833 12.094 0.5625 11.9901C0.604167 11.8856 0.666667 11.7917 0.75 11.7084L9.33333 3.12508L12.875 6.66675L4.29167 15.2501C4.20833 15.3334 4.11472 15.3959 4.01083 15.4376C3.90639 15.4792 3.79861 15.5001 3.6875 15.5001H1.33333Z" fill="#586A84"/>
</svg>
