<svg width="20" height="21" viewBox="0 0 20 21" fill="none" xmlns="http://www.w3.org/2000/svg">
<path d="M8.12491 20.5H11.8749C12.1249 20.5 12.3416 20.4167 12.5249 20.25C12.7082 20.0833 12.8166 19.875 12.8499 19.625L13.1499 17.3C13.3666 17.2167 13.5706 17.1167 13.7619 17C13.9539 16.8833 14.1416 16.7583 14.3249 16.625L16.4999 17.525C16.7332 17.6083 16.9666 17.6167 17.1999 17.55C17.4332 17.4833 17.6166 17.3417 17.7499 17.125L19.5999 13.9C19.7332 13.6833 19.7749 13.45 19.7249 13.2C19.6749 12.95 19.5499 12.75 19.3499 12.6L17.4749 11.175C17.4916 11.0583 17.4999 10.9457 17.4999 10.837V10.162C17.4999 10.054 17.4916 9.94167 17.4749 9.825L19.3499 8.4C19.5499 8.25 19.6749 8.05 19.7249 7.8C19.7749 7.55 19.7332 7.31667 19.5999 7.1L17.7499 3.875C17.6332 3.64167 17.4542 3.49567 17.2129 3.437C16.9709 3.379 16.7332 3.39167 16.4999 3.475L14.3249 4.375C14.1416 4.24167 13.9499 4.11667 13.7499 4C13.5499 3.88333 13.3499 3.78333 13.1499 3.7L12.8499 1.375C12.8166 1.125 12.7082 0.916667 12.5249 0.75C12.3416 0.583333 12.1249 0.5 11.8749 0.5H8.12491C7.87491 0.5 7.65824 0.583333 7.47491 0.75C7.29157 0.916667 7.18324 1.125 7.14991 1.375L6.84991 3.7C6.63324 3.78333 6.42891 3.88333 6.23691 4C6.04557 4.11667 5.85824 4.24167 5.67491 4.375L3.49991 3.475C3.26657 3.39167 3.03324 3.38333 2.79991 3.45C2.56657 3.51667 2.38324 3.65833 2.24991 3.875L0.399906 7.1C0.266573 7.31667 0.224907 7.55 0.274906 7.8C0.324905 8.05 0.449905 8.25 0.649906 8.4L2.52491 9.825C2.50824 9.94167 2.49991 10.054 2.49991 10.162V10.837C2.49991 10.9457 2.51657 11.0583 2.54991 11.175L0.674906 12.6C0.474905 12.75 0.349905 12.95 0.299906 13.2C0.249907 13.45 0.291573 13.6833 0.424906 13.9L2.27491 17.1C2.40824 17.3167 2.59557 17.4627 2.83691 17.538C3.07891 17.6127 3.31657 17.6083 3.54991 17.525L5.67491 16.625C5.85824 16.7583 6.04991 16.8833 6.24991 17C6.44991 17.1167 6.64991 17.2167 6.84991 17.3L7.14991 19.625C7.18324 19.875 7.29157 20.0833 7.47491 20.25C7.65824 20.4167 7.87491 20.5 8.12491 20.5ZM9.94991 14C8.98324 14 8.15824 13.6583 7.47491 12.975C6.79157 12.2917 6.44991 11.4667 6.44991 10.5C6.44991 9.53333 6.79157 8.70833 7.47491 8.025C8.15824 7.34167 8.98324 7 9.94991 7C10.9332 7 11.7626 7.34167 12.4379 8.025C13.1126 8.70833 13.4499 9.53333 13.4499 10.5C13.4499 11.4667 13.1126 12.2917 12.4379 12.975C11.7626 13.6583 10.9332 14 9.94991 14Z" fill="#586A84"/>
</svg>
