<svg width="19" height="19" viewBox="0 0 19 19" fill="none" xmlns="http://www.w3.org/2000/svg">
<path d="M2.12318 18.109L16.1228 18.0132C17.2328 18.0056 18.1167 17.1095 18.1091 15.9996L18.0817 11.9997L16.0818 12.0133L16.1092 16.0132L2.10949 16.1091L2.01368 2.10938L16.0134 2.01357L16.0407 6.01348L18.0407 5.99979L18.0133 1.99989C18.0097 1.46947 17.7955 0.962212 17.4179 0.589715C17.0402 0.217218 16.5301 0.00999004 15.9997 0.01362L2 0.109426C1.46958 0.113056 0.962324 0.327247 0.589827 0.704877C0.21733 1.08251 0.0101017 1.59264 0.0137316 2.12307L0.109538 16.1227C0.117134 17.2327 1.0232 18.1165 2.12318 18.109ZM10.9569 5.46826L9.5272 4.05801L4.56153 9.09211L9.59563 14.0578L11.0059 12.6381L8.39828 10.0659L18.0681 9.9997L18.0544 7.99975L8.3846 8.06592L10.9569 5.46826Z" fill="url(#paint0_linear_407_36942)"/>
<defs>
<linearGradient id="paint0_linear_407_36942" x1="9.12301" y1="18.0611" x2="8.99983" y2="0.061523" gradientUnits="userSpaceOnUse">
<stop stop-color="#5272E7"/>
<stop offset="1" stop-color="#7A5DE8"/>
</linearGradient>
</defs>
</svg>
