<svg width="16" height="16" viewBox="0 0 16 16" fill="none" xmlns="http://www.w3.org/2000/svg">
<mask id="mask0_398_9730" style="mask-type:alpha" maskUnits="userSpaceOnUse" x="0" y="0" width="16" height="16">
<rect width="16" height="16" fill="#D9D9D9"/>
</mask>
<g mask="url(#mask0_398_9730)">
<path d="M1.33337 8.66683V5.3335C1.33337 4.96683 1.46404 4.65305 1.72537 4.39216C1.98626 4.13083 2.30004 4.00016 2.66671 4.00016H5.33337V2.66683C5.33337 2.30016 5.46404 1.98616 5.72537 1.72483C5.98626 1.46394 6.30004 1.3335 6.66671 1.3335H9.33337C9.70004 1.3335 10.014 1.46394 10.2754 1.72483C10.5363 1.98616 10.6667 2.30016 10.6667 2.66683V4.00016H13.3334C13.7 4.00016 14.014 4.13083 14.2754 4.39216C14.5363 4.65305 14.6667 4.96683 14.6667 5.3335V8.66683H10V8.00016C10 7.81127 9.93626 7.65283 9.80871 7.52483C9.68071 7.39727 9.52226 7.3335 9.33337 7.3335H6.66671C6.47782 7.3335 6.3196 7.39727 6.19204 7.52483C6.06404 7.65283 6.00004 7.81127 6.00004 8.00016V8.66683H1.33337ZM6.66671 4.00016H9.33337V2.66683H6.66671V4.00016ZM7.33337 10.0002V8.66683H8.66671V10.0002H7.33337ZM2.66671 14.0002C2.30004 14.0002 1.98626 13.8697 1.72537 13.6088C1.46404 13.3475 1.33337 13.0335 1.33337 12.6668V10.0002H6.00004V10.6668C6.00004 10.8557 6.06404 11.0139 6.19204 11.1415C6.3196 11.2695 6.47782 11.3335 6.66671 11.3335H9.33337C9.52226 11.3335 9.68071 11.2695 9.80871 11.1415C9.93626 11.0139 10 10.8557 10 10.6668V10.0002H14.6667V12.6668C14.6667 13.0335 14.5363 13.3475 14.2754 13.6088C14.014 13.8697 13.7 14.0002 13.3334 14.0002H2.66671Z" fill="#586A84"/>
</g>
</svg>
